<svg id="color" enable-background="new 0 0 24 24" height="512" viewBox="0 0 24 24" width="512" xmlns="http://www.w3.org/2000/svg"><path d="m15 6.5c-.552 0-1-.448-1-1v-1.5h-4v1.5c0 .552-.448 1-1 1s-1-.448-1-1v-1.5c0-1.103.897-2 2-2h4c1.103 0 2 .897 2 2v1.5c0 .552-.448 1-1 1z" fill="#455a64"/><path d="m21.25 5h-18.5c-1.52 0-2.75 1.23-2.75 2.75v11.5c0 1.52 1.23 2.75 2.75 2.75h18.5c1.52 0 2.75-1.23 2.75-2.75v-11.5c0-1.52-1.23-2.75-2.75-2.75z" fill="#607d8b"/><path d="m0 11h24v1.5h-24z" fill="#455a64"/><g fill="#eceff1"><path d="m6.75 14.167c-.414 0-.75-.336-.75-.75v-3.667c0-.414.336-.75.75-.75s.75.336.75.75v3.667c0 .414-.336.75-.75.75z"/><path d="m17.25 14.167c-.414 0-.75-.336-.75-.75v-3.667c0-.414.336-.75.75-.75s.75.336.75.75v3.667c0 .414-.336.75-.75.75z"/></g></svg>